{"glyphs":{"0":{"ha":949,"x_min":0,"x_max":842,"o":"m 43 429 l 216 486 l 249 311 l 190 345 l 68 109 l 0 219 l 102 395 l 43 429 m 102 50 l 81 83 l 136 185 l 373 185 l 373 50 l 102 50 m 543 0 l 407 121 l 543 237 l 543 170 l 808 182 l 746 68 l 543 68 l 543 0 m 842 240 l 823 205 l 707 202 l 589 408 l 706 475 l 842 240 m 654 653 l 618 475 l 449 534 l 507 568 l 364 792 l 494 795 l 595 619 l 654 653 m 296 792 l 336 793 l 397 695 l 278 490 l 161 557 l 296 792 z "},"1":{"ha":882,"x_min":0,"x_max":746,"o":"m 86 760 l 431 873 l 497 522 l 380 590 l 136 118 l 0 339 l 203 692 l 86 760 m 203 0 l 161 68 l 253 239 l 746 239 l 746 0 l 203 0 z "},"2":{"ha":1085,"x_min":0,"x_max":949,"o":"m 0 882 l 543 882 l 475 1085 l 949 814 l 475 543 l 543 746 l 136 746 l 136 136 l 949 136 l 949 0 l 0 0 l 0 882 z "},"3":{"ha":1085,"x_min":0,"x_max":949,"o":"m 0 0 l 0 746 l 543 746 l 475 949 l 949 678 l 475 407 l 543 610 l 136 610 l 136 0 l 0 0 z "},"4":{"ha":949,"x_min":0,"x_max":814,"o":"m 814 271 l 746 203 l 475 407 l 475 0 l 339 0 l 339 407 l 68 203 l 0 271 l 407 678 l 814 271 z "},"5":{"ha":814,"x_min":0,"x_max":678,"o":"m 678 339 l 678 203 l 407 407 l 407 0 l 271 0 l 271 407 l 0 203 l 0 339 l 339 678 l 678 339 z "},"6":{"ha":1829,"x_min":0,"x_max":1695,"o":"m 0 339 l 0 543 l 136 543 q 407 339 339 475 q 610 203 475 203 q 814 339 746 203 q 1085 543 882 475 l 1221 543 l 1221 339 l 1153 339 q 949 203 1017 339 q 678 0 882 68 l 610 0 l 543 0 q 271 203 339 68 q 68 339 203 339 l 0 339 m 1221 746 l 1695 475 l 1221 136 l 1221 746 z "},"7":{"ha":1221,"x_min":0,"x_max":1085,"o":"m 273 0 l 172 0 l 170 475 l 0 475 l 271 814 l 543 475 l 373 475 l 375 0 l 273 0 m 916 814 l 916 339 l 1085 339 l 814 0 l 543 339 l 712 339 l 712 814 l 814 814 l 916 814 z "},"8":{"ha":1221,"x_min":0,"x_max":1085,"o":"m 1085 407 l 1085 271 l 678 475 l 746 0 l 339 0 l 407 475 l 0 271 l 0 407 l 543 949 l 1085 407 z "},"9":{"ha":1221,"x_min":0,"x_max":1085,"o":"m 1085 407 l 1085 203 l 646 610 l 644 0 l 447 0 l 447 610 l 0 203 l 0 407 l 543 949 l 1085 407 z "},"\"":{"ha":1424,"x_min":0,"x_max":1289,"o":"m 576 1038 q 509 970 509 1038 l 509 834 l 305 834 q 305 766 237 834 l 608 461 q 676 459 644 427 l 983 766 q 983 834 1051 834 l 780 834 l 780 970 q 712 1038 780 1038 l 576 1038 m 339 376 q 271 308 271 376 q 339 240 271 240 l 949 240 q 1017 308 1017 240 q 949 376 1017 376 l 339 376 m 644 1289 q 1100 1100 911 1289 q 1289 644 1289 911 q 1100 189 1289 377 q 644 0 911 0 q 189 189 377 0 q 0 644 0 377 q 189 1100 0 911 q 644 1289 377 1289 z "},"#":{"ha":1289,"x_min":0,"x_max":1153,"o":"m 509 1001 q 441 933 441 1001 l 441 798 l 237 798 q 237 730 170 798 l 541 425 q 608 422 576 391 l 916 730 q 916 798 983 798 l 712 798 l 712 933 q 644 1001 712 1001 l 509 1001 m 0 1017 q 136 1153 0 1153 l 1017 1153 q 1153 1017 1153 1153 l 1153 136 q 1017 0 1153 0 l 136 0 q 0 136 0 0 l 0 1017 m 271 339 q 203 271 203 339 q 271 203 203 203 l 882 203 q 949 271 949 203 q 882 339 949 339 l 271 339 z "},"$":{"ha":882,"x_min":-34,"x_max":780,"o":"m 305 0 q 237 68 237 0 l 237 203 l 34 203 q 34 271 -34 203 l 337 576 q 405 578 373 610 l 712 271 q 712 203 780 203 l 509 203 l 509 68 q 441 0 509 0 l 305 0 z "},"%":{"ha":746,"x_min":0,"x_max":610,"o":"m 610 814 l 407 814 l 306 0 l 203 814 l 0 814 l 309 1221 l 610 814 z "},"&":{"ha":1017,"x_min":0,"x_max":882,"o":"m 0 136 l 271 543 l 407 339 l 678 814 l 475 814 l 882 1017 l 814 581 l 746 772 l 407 203 l 271 407 l 0 0 l 0 136 z "},"'":{"ha":1017,"x_min":0,"x_max":882,"o":"m 836 640 l 859 584 l 836 640 m 738 513 l 711 583 l 738 513 m 223 654 l 178 596 l 223 654 m 127 750 q 130 753 128 751 q 441 882 258 882 q 753 753 623 882 q 836 640 804 701 l 746 652 l 711 583 q 656 656 690 623 q 441 746 567 746 q 225 656 315 746 q 223 654 224 655 l 136 649 l 127 750 m 89 707 l 127 750 l 89 707 m 369 144 l 441 136 l 369 144 m 441 136 q 656 225 567 136 q 746 441 746 315 q 738 513 746 479 l 774 591 l 859 584 q 882 441 882 517 q 752 129 882 258 q 441 0 623 0 q 408 1 424 0 l 475 68 l 441 136 m 348 9 q 130 130 224 34 q 0 441 0 258 q 89 707 0 592 l 104 590 l 178 596 q 136 441 136 527 q 225 225 136 315 q 369 144 288 162 l 407 68 l 348 9 m 408 1 l 348 9 l 408 1 z "},"(":{"ha":1085,"x_min":0,"x_max":949,"o":"m 848 181 q 810 139 831 159 q 475 0 671 0 q 139 139 278 0 q 0 475 0 278 q 139 810 0 671 q 475 949 278 949 q 810 810 671 949 q 931 610 908 726 l 814 562 q 746 701 814 641 q 474 814 610 814 q 235 715 334 814 q 136 476 136 616 q 235 237 136 336 q 474 138 334 138 q 713 237 614 138 q 741 268 728 252 q 610 339 680 309 l 949 475 l 949 68 q 848 181 903 130 z "},")":{"ha":1257,"x_min":0,"x_max":1121,"o":"m 463 189 q 643 138 543 138 q 882 237 783 138 q 909 268 897 252 q 779 339 848 309 l 1118 475 l 1118 68 q 1017 181 1072 130 q 979 139 1000 159 q 644 0 840 0 q 407 62 512 0 l 463 189 m 982 526 q 937 707 987 619 q 731 864 867 827 q 690 872 711 869 q 694 724 686 799 l 407 949 l 759 1153 q 711 1009 728 1081 q 767 997 739 1004 q 1055 776 957 946 q 1120 540 1121 663 l 982 526 m 432 819 q 298 689 349 776 q 264 433 229 568 q 277 393 270 412 q 404 471 343 426 l 353 109 l 0 313 q 149 343 77 321 q 131 397 138 370 q 178 758 80 587 q 351 932 244 871 l 432 819 z "},"*":{"ha":1356,"x_min":0,"x_max":1240,"o":"m 460 216 q 677 138 553 138 q 916 237 817 138 q 944 268 931 252 q 814 339 883 309 l 1153 475 l 1153 68 q 1052 181 1106 130 q 1014 139 1034 159 q 678 0 875 0 q 385 102 510 0 l 460 216 m 1078 547 q 1037 774 1099 666 q 831 931 967 895 q 791 940 811 937 q 794 791 786 867 l 507 1017 l 859 1221 q 812 1076 829 1149 q 867 1065 840 1072 q 1156 844 1057 1014 q 1215 538 1240 698 l 1078 547 m 475 932 q 298 783 361 892 q 264 527 229 663 q 277 488 270 507 q 404 565 343 520 l 353 203 l 0 407 q 149 437 77 416 q 131 492 138 464 q 178 852 80 682 q 414 1055 262 997 l 475 932 z "},"+":{"ha":1085,"x_min":4,"x_max":949,"o":"m 203 203 q 474 138 339 136 q 713 237 614 138 q 741 268 728 252 q 610 339 680 309 l 949 475 l 949 68 q 848 181 903 130 q 810 139 831 159 q 475 0 671 0 q 139 139 278 0 q 4 407 24 254 q 203 203 115 251 m 750 814 q 479 880 614 882 q 241 781 340 880 q 213 749 226 766 q 343 678 274 709 l 4 543 l 4 949 q 105 836 51 887 q 143 878 123 858 q 479 1017 282 1017 q 814 878 675 1017 q 949 610 929 764 q 750 814 839 766 z "},",":{"ha":1085,"x_min":0,"x_max":949,"o":"m 142 407 q 235 237 161 311 q 474 138 334 138 q 713 237 614 138 q 741 268 728 252 q 610 339 680 309 l 949 475 l 949 68 q 848 181 903 130 q 810 139 831 159 q 475 0 671 0 q 139 139 278 0 q 4 407 24 254 l 142 407 m 807 543 q 715 713 789 639 q 475 812 616 812 q 237 713 336 812 q 209 682 222 698 q 339 610 270 641 l 0 475 l 0 882 q 101 768 47 819 q 139 810 119 790 q 475 949 278 949 q 810 810 671 949 q 945 543 925 696 l 807 543 z "},"-":{"ha":1085,"x_min":0,"x_max":949,"o":"m 848 181 q 810 139 831 159 q 475 0 671 0 q 139 139 278 0 q 0 475 0 278 q 139 810 0 671 q 475 949 278 949 q 810 810 671 949 q 931 610 899 722 q 746 746 850 699 q 474 814 610 833 q 235 715 334 814 q 136 476 136 616 q 235 237 136 336 q 474 138 334 138 q 713 237 614 138 q 741 268 728 252 q 610 339 680 309 l 949 475 l 949 68 q 848 181 903 130 z "},".":{"ha":1085,"x_min":0,"x_max":949,"o":"m 407 949 l 271 814 l 407 678 l 271 543 l 136 678 l 0 543 l 0 949 l 407 949 m 949 949 l 949 543 l 814 678 l 678 543 l 543 678 l 678 814 l 543 949 l 949 949 m 0 0 l 0 407 l 136 271 l 271 407 l 407 271 l 271 136 l 407 0 l 0 0 m 543 0 l 678 136 l 543 271 l 678 407 l 814 271 l 949 407 l 949 0 l 543 0 z "},"/":{"ha":543,"x_min":0,"x_max":407,"o":"m 407 407 l 271 271 l 407 136 l 271 0 l 136 136 l 0 0 l 0 407 l 407 407 z "},":":{"ha":407,"x_min":0,"x_max":271,"o":"m 0 746 l 136 882 l 271 746 l 271 0 l 136 136 l 0 0 l 0 746 z "},";":{"ha":1153,"x_min":0,"x_max":1017,"o":"m 0 543 l 339 1017 l 678 543 l 475 543 l 475 407 q 678 203 475 203 q 882 407 882 203 l 1017 407 q 678 0 1017 0 q 203 407 203 0 l 203 543 l 0 543 z "},"<":{"ha":1017,"x_min":-34,"x_max":916,"o":"m 848 339 q 848 271 916 271 l 678 271 q 610 203 610 271 l 610 136 q 441 0 610 0 q 271 136 271 0 l 271 203 q 203 271 271 271 l 34 271 q 34 339 -34 271 l 375 746 q 511 746 443 814 l 848 339 m 441 68 q 543 136 543 68 l 543 271 q 610 339 543 339 l 758 339 l 486 678 q 393 678 443 715 l 119 339 l 271 339 q 339 271 339 339 l 339 136 q 441 68 339 68 z "},"=":{"ha":1017,"x_min":-34,"x_max":916,"o":"m 848 339 q 848 271 916 271 l 644 271 q 576 203 576 271 l 576 136 q 441 0 576 0 q 305 136 305 0 l 305 203 q 237 271 305 271 l 34 271 q 34 339 -34 271 l 373 678 q 509 678 441 746 l 848 339 m 441 68 q 509 136 509 68 l 509 271 q 576 339 509 339 l 758 339 l 484 610 q 391 610 441 648 l 119 339 l 305 339 q 373 271 373 339 l 373 136 q 441 68 373 68 z "},">":{"ha":1017,"x_min":-34,"x_max":916,"o":"m 848 339 q 848 271 916 271 l 678 271 q 610 203 610 271 l 610 68 q 543 0 610 0 l 339 0 q 271 68 271 0 l 271 203 q 203 271 271 271 l 34 271 q 34 339 -34 271 l 375 746 q 511 746 443 814 l 848 339 z "},"?":{"ha":1017,"x_min":-34,"x_max":916,"o":"m 848 339 q 848 271 916 271 l 644 271 q 576 203 576 271 l 576 68 q 509 0 576 0 l 373 0 q 305 68 305 0 l 305 203 q 237 271 305 271 l 34 271 q 34 339 -34 271 l 373 678 q 509 678 441 746 l 848 339 z "},"@":{"ha":1356,"x_min":0,"x_max":1221,"o":"m 678 1020 q 658 972 678 992 q 610 952 638 952 q 563 972 583 952 q 543 1020 543 992 q 563 1068 543 1048 q 610 1088 583 1088 q 658 1068 638 1088 q 678 1020 678 1048 m 543 884 q 523 837 543 857 q 475 817 503 817 q 427 837 447 817 q 407 884 407 857 q 427 932 407 912 q 475 952 447 952 q 523 932 503 952 q 543 884 543 912 m 814 884 q 794 837 814 857 q 746 817 774 817 q 698 837 718 817 q 678 884 678 857 q 698 932 678 912 q 746 952 718 952 q 794 932 774 952 q 814 884 814 912 m 814 749 q 834 797 814 777 q 882 817 854 817 q 929 797 909 817 q 949 749 949 777 q 929 701 949 721 q 882 681 909 681 q 834 701 854 681 q 814 749 814 721 m 949 613 q 969 661 949 641 q 1017 681 989 681 q 1065 661 1045 681 q 1085 613 1085 641 q 1065 565 1085 585 q 1017 545 1045 545 q 969 565 989 545 q 949 613 949 585 m 407 749 q 387 701 407 721 q 339 681 367 681 q 291 701 311 681 q 271 749 271 721 q 291 797 271 777 q 339 817 311 817 q 387 797 367 817 q 407 749 407 777 m 271 613 q 251 565 271 585 q 203 545 231 545 q 156 565 176 545 q 136 613 136 585 q 156 661 136 641 q 203 681 176 681 q 251 661 231 681 q 271 613 271 641 m 1221 477 q 1201 430 1221 450 q 1153 410 1181 410 q 1105 430 1125 410 q 1085 477 1085 450 q 1105 525 1085 505 q 1153 545 1125 545 q 1201 525 1181 545 q 1221 477 1221 505 m 136 477 q 116 430 136 450 q 68 410 96 410 q 20 430 40 410 q 0 477 0 450 q 20 525 0 505 q 68 545 40 545 q 116 525 96 545 q 136 477 136 505 m 407 477 q 387 430 407 450 q 339 410 367 410 q 291 430 311 410 q 271 477 271 450 q 291 525 271 505 q 339 545 311 545 q 387 525 367 545 q 407 477 407 505 m 949 477 q 929 430 949 450 q 882 410 909 410 q 834 430 854 410 q 814 477 814 450 q 834 525 814 505 q 882 545 854 545 q 929 525 909 545 q 949 477 949 505 m 271 477 q 251 430 271 450 q 203 410 231 410 q 156 430 176 410 q 136 477 136 450 q 156 525 136 505 q 203 545 176 545 q 251 525 231 545 q 271 477 271 505 m 543 477 q 523 430 543 450 q 475 410 503 410 q 427 430 447 410 q 407 477 407 450 q 427 525 407 505 q 475 545 447 545 q 523 525 503 545 q 543 477 543 505 m 814 477 q 794 430 814 450 q 746 410 774 410 q 698 430 718 410 q 678 477 678 450 q 698 525 678 505 q 746 545 718 545 q 794 525 774 545 q 814 477 814 505 m 1085 477 q 1065 430 1085 450 q 1017 410 1045 410 q 969 430 989 410 q 949 477 949 450 q 969 525 949 505 q 1017 545 989 545 q 1065 525 1045 545 q 1085 477 1085 505 m 543 342 q 523 294 543 314 q 475 274 503 274 q 427 294 447 274 q 407 342 407 314 q 427 390 407 370 q 475 410 447 410 q 523 390 503 410 q 543 342 543 370 m 543 206 q 523 158 543 178 q 475 138 503 138 q 427 158 447 138 q 407 206 407 178 q 427 254 407 234 q 475 274 447 274 q 523 254 503 274 q 543 206 543 234 m 814 342 q 794 294 814 314 q 746 274 774 274 q 698 294 718 274 q 678 342 678 314 q 698 390 678 370 q 746 410 718 410 q 794 390 774 410 q 814 342 814 370 m 814 206 q 794 158 814 178 q 746 138 774 138 q 698 158 718 138 q 678 206 678 178 q 698 254 678 234 q 746 274 718 274 q 794 254 774 274 q 814 206 814 234 m 543 69 q 523 20 543 41 q 475 0 503 0 q 427 20 447 0 q 407 69 407 41 q 427 118 407 98 q 475 138 447 138 q 523 118 503 138 q 543 69 543 98 m 678 71 q 658 23 678 43 q 610 3 638 3 q 563 23 583 3 q 543 71 543 43 q 563 118 543 98 q 610 138 583 138 q 658 118 638 138 q 678 71 678 98 m 814 71 q 794 23 814 43 q 746 3 774 3 q 698 23 718 3 q 678 71 678 43 q 698 118 678 98 q 746 138 718 138 q 794 118 774 138 q 814 71 814 98 z "},"A":{"ha":1221,"x_min":0,"x_max":1085,"o":"m 543 0 l 203 0 l 203 203 l 0 203 l 543 746 l 1085 203 l 882 203 l 882 0 l 543 0 z "},"B":{"ha":1221,"x_min":0,"x_max":1085,"o":"m 543 0 l 271 0 l 271 271 l 0 271 l 543 814 l 1085 271 l 814 271 l 814 0 l 543 0 z "},"C":{"ha":1221,"x_min":0,"x_max":1085,"o":"m 543 0 l 339 0 l 339 271 l 0 271 l 543 814 l 1085 271 l 746 271 l 746 0 l 543 0 z "},"D":{"ha":1221,"x_min":0,"x_max":1085,"o":"m 0 814 l 543 1356 l 1085 814 l 0 814 m 746 746 l 746 543 l 339 543 l 339 746 l 746 746 m 746 203 l 746 0 l 339 0 l 339 203 l 746 203 m 746 475 l 746 271 l 339 271 l 339 475 l 746 475 z "},"E":{"ha":1221,"x_min":0,"x_max":1085,"o":"m 814 203 l 814 0 l 271 0 l 271 203 l 814 203 m 271 543 l 0 543 l 543 1085 l 1085 543 l 814 543 l 814 339 l 271 339 l 271 543 z "},"F":{"ha":1221,"x_min":0,"x_max":1085,"o":"m 746 203 l 746 0 l 339 0 l 339 203 l 746 203 m 339 407 l 0 407 l 543 949 l 1085 407 l 746 407 l 746 271 l 339 271 l 339 407 z "},"G":{"ha":1221,"x_min":0,"x_max":1085,"o":"m 0 610 l 543 1153 l 1085 610 l 0 610 m 746 543 l 746 339 l 339 339 l 339 543 l 746 543 m 746 271 l 746 136 l 339 136 l 339 271 l 746 271 m 746 68 l 746 0 l 339 0 l 339 68 l 746 68 z "},"H":{"ha":1221,"x_min":0,"x_max":1085,"o":"m 1085 814 l 543 271 l 0 814 l 1085 814 m 1085 203 l 1085 0 l 0 0 l 0 203 l 1085 203 z "},"I":{"ha":1221,"x_min":0,"x_max":1085,"o":"m 0 339 l 543 882 l 1085 339 l 0 339 m 1085 203 l 1085 0 l 0 0 l 0 203 l 1085 203 z "},"J":{"ha":1221,"x_min":0,"x_max":1085,"o":"m 0 0 l 543 882 l 1085 0 l 0 0 z "},"K":{"ha":1221,"x_min":-5,"x_max":1101,"o":"m 136 487 l 136 487 q 215 258 131 358 q 445 138 305 151 q 692 216 585 126 q 811 446 799 306 q 812 488 813 467 q 667 458 746 487 l 882 782 l 1101 469 q 951 490 1025 486 q 949 433 951 463 q 781 111 932 237 q 434 2 630 -15 q 112 170 239 19 q 1 487 -5 309 l 0 487 l 0 962 l 136 962 l 136 487 z "},"L":{"ha":1221,"x_min":0,"x_max":1085,"o":"m 543 0 l 271 0 l 271 271 l 0 271 l 543 814 l 1085 271 l 814 271 l 814 0 l 543 0 m 746 339 l 916 339 l 543 712 l 163 339 l 339 339 l 339 90 l 746 90 l 746 339 z "},"M":{"ha":1219,"x_min":0,"x_max":1085,"o":"m 543 0 l 339 0 l 339 271 l 0 271 l 543 814 l 1085 271 l 746 271 l 746 0 l 543 0 m 678 339 l 916 339 l 543 712 l 163 339 l 407 339 l 407 90 l 678 90 l 678 339 z "},"N":{"ha":1221,"x_min":0,"x_max":1085,"o":"m 543 271 l 271 271 l 271 543 l 0 543 l 543 1085 l 1085 543 l 814 543 l 814 271 l 543 271 m 746 610 l 916 610 l 543 983 l 163 610 l 339 610 l 339 361 l 746 361 l 746 610 m 814 203 l 814 0 l 271 0 l 271 203 l 814 203 m 339 136 l 339 68 l 746 68 l 746 136 l 339 136 z "},"O":{"ha":678,"x_min":0,"x_max":543,"o":"m 203 543 l 0 543 l 271 814 l 543 543 l 339 543 l 339 271 l 543 271 l 271 0 l 0 271 l 203 271 l 203 543 z "},"P":{"ha":678,"x_min":0,"x_max":543,"o":"m 170 644 l 0 644 l 271 916 l 543 644 l 373 644 l 373 271 l 543 271 l 271 0 l 0 271 l 170 271 l 170 644 z "},"Q":{"ha":1356,"x_min":0,"x_max":1221,"o":"m 509 712 l 509 949 l 339 949 l 610 1221 l 882 949 l 712 949 l 712 712 l 949 712 l 949 882 l 1221 610 l 949 339 l 949 509 l 712 509 l 712 271 l 882 271 l 610 0 l 339 271 l 509 271 l 509 509 l 271 509 l 271 339 l 0 610 l 271 882 l 271 712 l 509 712 z "},"R":{"ha":1492,"x_min":0,"x_max":1356,"o":"m 576 780 l 576 1085 l 407 1085 l 678 1356 l 949 1085 l 780 1085 l 780 780 l 1085 780 l 1085 949 l 1356 678 l 1085 407 l 1085 576 l 780 576 l 780 271 l 949 271 l 678 0 l 407 271 l 576 271 l 576 576 l 271 576 l 271 407 l 0 678 l 271 949 l 271 780 l 576 780 z "},"S":{"ha":543,"x_min":0,"x_max":407,"o":"m 127 916 l 0 916 l 203 1221 l 407 916 l 280 916 l 280 305 l 407 305 l 203 0 l 0 305 l 127 305 l 127 916 z "},"T":{"ha":1221,"x_min":0,"x_max":1085,"o":"m 543 0 l 339 0 l 271 271 l 0 271 l 543 814 l 1085 271 l 814 271 l 746 0 l 543 0 z "},"U":{"ha":1221,"x_min":0,"x_max":1085,"o":"m 543 0 l 339 0 l 271 271 l 0 271 l 543 814 l 1085 271 l 814 271 l 746 0 l 543 0 m 746 339 l 908 339 l 543 707 l 177 339 l 339 339 l 407 68 l 678 68 l 746 339 z "},"V":{"ha":1221,"x_min":0,"x_max":1085,"o":"m 543 0 l 339 0 l 339 407 l 0 339 l 543 882 l 1085 339 l 746 407 l 746 0 l 543 0 z "},"W":{"ha":1221,"x_min":0,"x_max":1085,"o":"m 543 0 l 339 0 l 339 407 l 0 339 l 543 882 l 1085 339 l 746 407 l 746 0 l 543 0 m 678 498 l 862 455 l 543 772 l 203 443 l 407 475 l 407 68 l 678 68 l 678 498 z "},"X":{"ha":1221,"x_min":0,"x_max":1085,"o":"m 543 0 l 407 0 l 339 407 l 0 339 l 543 882 l 1085 339 l 746 407 l 678 0 l 543 0 z "},"Y":{"ha":1221,"x_min":0,"x_max":1085,"o":"m 543 0 l 407 0 l 339 407 l 0 339 l 543 882 l 1085 339 l 746 407 l 678 0 l 543 0 m 678 498 l 862 455 l 543 772 l 233 453 l 407 497 l 475 68 l 610 68 l 678 498 z "},"Z":{"ha":1221,"x_min":0,"x_max":1085,"o":"m 543 0 l 407 0 l 339 271 l 0 203 l 543 746 l 1085 203 l 746 271 l 678 0 l 543 0 z "},"[":{"ha":1221,"x_min":0,"x_max":1085,"o":"m 543 0 l 407 0 l 339 271 l 0 203 l 543 746 l 1085 203 l 746 271 l 678 0 l 543 0 m 678 363 l 862 319 l 543 636 l 203 307 l 407 339 l 475 68 l 610 68 l 678 363 z "},"\\":{"ha":1085,"x_min":0,"x_max":949,"o":"m 475 203 l 373 203 l 373 475 l 203 475 l 475 746 l 746 475 l 576 475 l 576 203 l 475 203 m 949 475 q 810 139 949 278 q 475 0 671 0 q 139 139 278 0 q 0 475 0 278 q 139 810 0 671 q 475 949 278 949 q 810 810 671 949 q 949 475 949 671 m 475 882 q 187 763 306 882 q 68 475 68 644 q 187 187 68 306 q 475 68 306 68 q 763 187 644 68 q 882 475 882 306 q 763 763 882 644 q 475 882 644 882 z "},"]":{"ha":678,"x_min":0,"x_max":543,"o":"m 271 0 l 170 0 l 170 271 l 0 271 l 271 543 l 543 271 l 373 271 l 373 0 l 271 0 z "},"^":{"ha":1085,"x_min":0,"x_max":949,"o":"m 573 648 l 701 814 q 475 882 602 882 q 187 763 306 882 q 68 475 68 644 q 187 187 68 306 q 203 172 195 179 l 373 391 l 373 475 l 203 475 l 475 746 l 573 648 m 373 296 l 248 136 q 475 68 347 68 q 763 187 644 68 q 882 475 882 306 q 763 763 882 644 q 748 777 755 770 l 614 606 l 746 475 l 576 475 l 576 203 l 373 203 l 373 296 m 949 475 q 810 139 949 278 q 475 0 671 0 q 139 139 278 0 q 0 475 0 278 q 139 810 0 671 q 475 949 278 949 q 810 810 671 949 q 949 475 949 671 z "},"_":{"ha":1153,"x_min":0,"x_max":1017,"o":"m 203 746 l 0 746 l 305 1153 l 610 746 l 407 746 l 407 407 q 610 203 407 203 q 814 407 814 203 l 814 882 l 1017 882 l 1017 407 q 610 0 1017 0 q 203 407 203 0 l 203 746 z "},"`":{"ha":919,"x_min":0,"x_max":779,"o":"m 662 484 q 486 203 617 344 q 0 0 295 0 l 0 102 q 412 269 254 102 q 579 512 527 389 q 447 509 513 526 l 673 712 l 779 407 q 662 484 720 456 z "},"a":{"ha":1190,"x_min":0,"x_max":1061,"o":"m 984 367 q 867 180 954 273 q 543 44 739 44 l 543 112 q 818 223 711 112 q 928 386 894 303 q 840 383 884 394 l 991 519 l 1061 315 q 984 367 1023 349 m 77 739 q 195 926 107 832 q 519 1061 322 1061 l 519 994 q 244 882 350 994 q 133 720 168 802 q 221 722 177 711 l 71 587 l 0 790 q 77 739 39 757 m 694 1027 q 882 910 787 998 q 1017 587 1017 783 l 949 587 q 838 861 949 755 q 675 972 758 937 q 678 884 667 928 l 543 1035 l 746 1105 q 694 1027 713 1066 m 358 77 q 171 195 264 107 q 35 519 35 322 l 103 519 q 214 243 103 350 q 376 132 294 168 q 374 221 385 177 l 510 71 l 307 0 q 358 77 339 39 z "},"b":{"ha":746,"x_min":0,"x_max":591,"o":"m 271 543 l 271 854 l 591 678 q 437 665 505 686 q 475 475 475 578 q 336 139 475 278 q 0 0 197 0 l 0 68 q 288 187 169 68 q 407 475 407 306 q 374 639 407 564 q 271 543 314 604 z "},"c":{"ha":814,"x_min":-17,"x_max":701,"o":"m 593 330 q 609 412 609 368 q 550 556 609 497 q 406 616 490 616 l 406 650 q 573 580 504 650 q 643 412 643 511 q 624 317 643 361 q 701 311 659 307 l 541 223 l 541 378 q 593 330 563 348 m 215 611 q 136 584 174 606 q 41 460 63 542 q 62 307 20 379 l 33 290 q 8 469 -17 374 q 119 614 34 564 q 211 644 163 640 q 178 715 203 680 l 334 621 l 199 543 q 215 611 216 576 m 162 154 q 225 99 186 121 q 379 79 298 57 q 503 174 460 100 l 532 157 q 388 46 483 71 q 208 70 293 20 q 135 134 163 96 q 91 71 109 109 l 95 252 l 230 175 q 162 154 192 172 z "},"d":{"ha":1085,"x_min":0,"x_max":949,"o":"m 0 0 l 475 475 l 949 0 l 475 68 l 0 0 z "},"e":{"ha":1085,"x_min":0,"x_max":949,"o":"m 0 271 l 475 746 l 949 271 l 475 339 l 0 271 m 475 271 l 271 225 l 339 0 l 610 0 l 678 229 l 475 271 z "},"f":{"ha":1085,"x_min":0,"x_max":949,"o":"m 339 229 q 0 136 170 208 l 475 610 l 949 136 q 610 229 780 208 l 610 0 l 339 0 l 339 229 z "},"g":{"ha":1085,"x_min":0,"x_max":949,"o":"m 339 568 q 0 475 170 547 l 475 949 l 949 475 q 610 568 780 547 l 610 407 l 339 407 l 339 568 m 610 339 l 610 203 l 339 203 l 339 339 l 610 339 m 610 136 l 610 0 l 339 0 l 339 136 l 610 136 z "},"h":{"ha":1085,"x_min":0,"x_max":949,"o":"m 339 229 q 0 136 170 208 l 475 610 l 949 136 q 610 229 780 208 l 610 0 l 339 0 l 339 229 m 543 319 q 728 271 642 311 l 475 513 l 233 271 q 407 317 339 319 l 407 68 l 543 68 l 543 319 z "},"i":{"ha":949,"x_min":0,"x_max":814,"o":"m 0 271 l 407 882 l 814 271 l 543 271 l 543 0 l 271 0 l 271 271 l 0 271 z "},"j":{"ha":949,"x_min":0,"x_max":814,"o":"m 0 271 l 407 882 l 814 271 l 543 271 l 543 0 l 271 0 l 271 271 l 0 271 m 475 339 l 678 339 l 407 746 l 136 339 l 339 339 l 339 68 l 475 68 l 475 339 z "},"k":{"ha":949,"x_min":0,"x_max":814,"o":"m 0 543 l 407 1153 l 814 543 l 543 543 l 543 407 l 271 407 l 271 543 l 0 543 m 543 339 l 543 203 l 271 203 l 271 339 l 543 339 m 543 136 l 543 0 l 271 0 l 271 136 l 543 136 z "},"l":{"ha":949,"x_min":0,"x_max":814,"o":"m 0 543 l 407 1153 l 814 543 l 543 543 l 543 0 l 271 0 l 271 543 l 0 543 z "},"m":{"ha":949,"x_min":0,"x_max":814,"o":"m 0 475 l 407 1085 l 814 475 l 543 475 l 543 271 l 271 271 l 271 475 l 0 475 m 543 203 l 543 0 l 271 0 l 271 203 l 543 203 z "},"n":{"ha":949,"x_min":0,"x_max":814,"o":"m 0 475 l 407 1085 l 814 475 l 543 475 l 543 271 l 271 271 l 271 475 l 0 475 m 475 543 l 678 543 l 407 949 l 136 543 l 339 543 l 339 339 l 475 339 l 475 543 m 543 203 l 543 0 l 271 0 l 271 203 l 543 203 m 339 136 l 339 68 l 475 68 l 475 136 l 339 136 z "},"o":{"ha":1123,"x_min":0,"x_max":983,"o":"m 136 882 l 0 882 l 203 1187 l 407 882 l 271 882 l 271 519 q 407 543 328 543 l 678 543 l 678 678 l 983 475 l 678 271 l 678 407 l 407 407 q 271 272 271 407 l 271 0 l 136 0 l 136 882 z "},"p":{"ha":847,"x_min":0,"x_max":711,"o":"m 136 0 l 0 0 l 0 271 q 271 543 0 543 l 407 543 l 407 678 l 711 475 l 407 271 l 407 407 l 271 407 q 136 271 136 407 l 136 0 z "},"q":{"ha":1695,"x_min":0,"x_max":1558,"o":"m 711 0 l 711 271 q 576 407 711 407 l 304 407 l 304 271 l 0 475 l 304 678 l 304 543 l 576 543 q 711 519 655 543 l 711 882 l 576 882 l 779 1187 l 983 882 l 847 882 l 847 519 q 983 543 903 543 l 1254 543 l 1254 678 l 1558 475 l 1254 271 l 1254 407 l 983 407 q 847 271 847 407 l 847 0 l 711 0 z "},"r":{"ha":905,"x_min":0,"x_max":763,"o":"m 280 203 l 382 356 l 484 203 l 416 203 l 416 0 l 348 0 l 348 203 l 280 203 m 348 559 l 348 763 l 416 763 l 416 559 l 484 559 l 382 407 l 280 559 l 348 559 m 559 279 l 407 381 l 559 483 l 559 415 l 763 415 l 763 347 l 559 347 l 559 279 m 203 347 l 0 347 l 0 415 l 203 415 l 203 483 l 356 381 l 203 279 l 203 347 z "},"s":{"ha":339,"x_min":0,"x_max":203,"o":"m 0 203 l 102 356 l 203 203 l 136 203 l 136 0 l 68 0 l 68 203 l 0 203 m 68 559 l 68 763 l 136 763 l 136 559 l 203 559 l 102 407 l 0 559 l 68 559 z "},"u":{"ha":949,"x_min":0,"x_max":814,"o":"m 0 610 l 271 1017 l 543 610 l 339 610 l 339 271 q 475 136 339 136 l 543 136 q 678 271 678 136 l 678 610 l 814 610 l 814 271 q 543 0 814 0 l 475 0 q 203 271 203 0 l 203 610 l 0 610 z "},"v":{"ha":1085,"x_min":0,"x_max":949,"o":"m 0 814 l 271 1221 l 543 814 l 339 814 l 339 271 q 475 136 339 136 l 678 136 q 814 271 814 136 l 814 407 q 678 543 814 543 l 475 543 l 475 678 l 678 678 q 949 407 949 678 l 949 271 q 678 0 949 0 l 475 0 q 203 271 203 0 l 203 814 l 0 814 z "},"w":{"ha":1424,"x_min":0,"x_max":1289,"o":"m 339 882 l 610 1289 l 882 882 l 678 882 l 678 271 q 814 136 678 136 l 1017 136 q 1153 271 1153 136 l 1153 407 q 1017 543 1153 543 l 814 543 l 814 678 l 1017 678 q 1289 407 1289 678 l 1289 271 q 1017 0 1289 0 l 814 0 q 543 271 543 0 l 543 882 l 339 882 m 407 678 l 407 543 l 0 543 l 0 678 l 407 678 z "},"x":{"ha":814,"x_min":0,"x_max":678,"o":"m 203 136 l 203 0 l 475 0 l 475 136 l 678 136 l 339 475 l 0 136 l 203 136 m 0 543 l 0 678 l 678 678 l 678 543 l 0 543 m 0 746 l 0 814 l 678 814 l 678 746 l 0 746 z "},"y":{"ha":814,"x_min":0,"x_max":678,"o":"m 203 746 l 203 1017 l 0 1017 l 339 1356 l 678 1017 l 475 1017 l 475 746 l 678 746 l 678 610 l 475 610 l 475 339 l 678 339 l 339 0 l 0 339 l 203 339 l 203 610 l 0 610 l 0 746 l 203 746 z "},"z":{"ha":1221,"x_min":0,"x_max":1085,"o":"m 0 0 q 475 746 407 407 q 203 678 407 746 l 543 1174 l 882 678 q 610 746 678 746 q 1085 0 678 407 q 543 136 746 153 q 0 0 339 159 z "},"{":{"ha":407,"x_min":0,"x_max":271,"o":"m 0 271 l 136 610 l 271 271 l 172 271 l 203 0 l 68 0 l 102 271 l 0 271 z "},"|":{"ha":678,"x_min":0,"x_max":543,"o":"m 0 543 l 271 1221 l 543 543 q 339 610 407 610 q 475 0 339 271 l 68 0 q 203 610 203 271 q 0 543 136 610 z "},"}":{"ha":678,"x_min":0,"x_max":543,"o":"m 0 475 l 271 949 l 543 475 q 339 543 407 543 q 475 0 339 271 q 68 0 271 136 q 203 543 203 271 q 0 475 136 543 z "},"¡":{"ha":1221,"x_min":0,"x_max":1085,"o":"m 0 0 l 543 678 l 1085 0 l 543 339 l 0 0 z "},"¢":{"ha":1221,"x_min":0,"x_max":1085,"o":"m 0 68 l 543 746 l 1085 68 l 543 407 l 0 68 m 543 339 l 339 203 l 339 0 l 746 0 l 746 203 l 543 339 z "},"£":{"ha":1153,"x_min":0,"x_max":1017,"o":"m 610 1051 q 581 979 610 1009 q 509 949 551 949 q 437 979 467 949 q 407 1051 407 1009 q 437 1123 407 1093 q 509 1153 467 1153 q 581 1123 551 1153 q 610 1051 610 1093 m 407 848 q 377 776 407 806 q 305 746 347 746 q 233 776 263 746 q 203 848 203 806 q 233 920 203 890 q 305 949 263 949 q 377 920 347 949 q 407 848 407 890 m 814 848 q 784 776 814 806 q 712 746 754 746 q 640 776 670 746 q 610 848 610 806 q 640 920 610 890 q 712 949 670 949 q 784 920 754 949 q 814 848 814 890 m 203 644 q 174 572 203 602 q 102 543 144 543 q 30 572 60 543 q 0 644 0 602 q 30 716 0 686 q 102 746 60 746 q 174 716 144 746 q 203 644 203 686 m 1017 644 q 987 572 1017 602 q 916 543 958 543 q 844 572 873 543 q 814 644 814 602 q 844 716 814 686 q 916 746 873 746 q 987 716 958 746 q 1017 644 1017 686 m 610 644 q 581 572 610 602 q 509 543 551 543 q 437 572 467 543 q 407 644 407 602 q 437 716 407 686 q 509 746 467 746 q 581 716 551 746 q 610 644 610 686 m 610 373 q 581 301 610 331 q 509 271 551 271 q 437 301 467 271 q 407 373 407 331 q 437 445 407 415 q 509 475 467 475 q 581 445 551 475 q 610 373 610 415 m 610 102 q 581 30 610 60 q 509 0 551 0 q 437 30 467 0 q 407 102 407 60 q 437 174 407 144 q 509 203 467 203 q 581 174 551 203 q 610 102 610 144 z "},"¤":{"ha":968,"x_min":-24,"x_max":848,"o":"m 410 610 l 415 610 l 413 613 l 410 610 m 479 546 l 479 68 q 412 0 479 0 q 344 68 344 0 l 344 544 l 119 319 q 24 319 71 271 q 24 415 -24 368 l 359 751 q 401 774 380 772 q 464 753 432 785 l 800 417 q 800 321 848 370 q 704 321 751 273 l 479 546 z "},"¥":{"ha":949,"x_min":-29,"x_max":843,"o":"m 406 746 l 410 746 l 408 749 l 406 746 m 475 682 l 475 68 q 407 0 475 0 q 339 68 339 0 l 339 680 l 115 455 q 19 455 66 407 q 19 551 -29 503 l 355 886 q 396 910 375 907 q 459 888 427 920 l 795 553 q 795 457 843 505 q 699 457 747 409 l 475 682 z "},"¦":{"ha":949,"x_min":-29,"x_max":843,"o":"m 396 910 q 459 888 427 920 l 795 553 q 795 457 843 505 q 699 457 747 409 l 408 749 l 115 455 q 19 455 66 407 q 19 551 -29 503 l 355 886 q 396 910 375 907 z "},"§":{"ha":949,"x_min":-29,"x_max":848,"o":"m 396 910 q 459 888 427 920 l 795 553 q 795 457 843 505 q 699 457 747 409 l 408 749 l 115 455 q 19 455 66 407 q 19 551 -29 503 l 355 886 q 396 910 375 907 m 401 547 q 465 526 433 557 l 800 190 q 800 94 848 142 q 705 94 752 46 l 414 386 l 120 92 q 24 92 72 44 q 24 188 -24 140 l 360 524 q 401 547 380 545 z "},"¨":{"ha":949,"x_min":0,"x_max":814,"o":"m 814 271 l 543 271 l 610 0 l 203 0 l 271 271 l 0 271 l 407 746 l 814 271 z "},"©":{"ha":949,"x_min":-24,"x_max":848,"o":"m 412 0 q 344 68 344 0 l 344 678 q 412 746 344 746 q 479 678 479 746 l 479 68 q 412 0 479 0 m 401 1046 q 464 1024 432 1056 l 800 688 q 800 593 848 641 q 704 593 751 545 l 413 884 l 119 591 q 24 591 71 543 q 24 686 -24 639 l 359 1022 q 401 1046 380 1043 z "},"ª":{"ha":949,"x_min":0,"x_max":814,"o":"m 0 0 l 407 610 l 814 0 l 0 0 m 610 102 l 407 407 l 203 102 l 610 102 z "},"«":{"ha":998,"x_min":-36,"x_max":905,"o":"m 538 620 l 537 102 q 435 0 537 0 q 334 102 334 0 l 335 631 l 180 472 q 36 472 108 400 q 36 616 -36 544 l 366 954 q 510 954 438 1026 l 832 605 q 832 461 905 533 q 688 461 761 389 l 538 620 z "},"¬":{"ha":949,"x_min":0,"x_max":814,"o":"m 406 465 l 409 465 l 408 467 l 406 465 m 444 300 l 444 606 q 410 640 444 640 q 376 606 376 640 l 376 300 l 264 413 q 216 413 239 437 q 216 365 192 389 l 384 197 q 404 185 394 186 q 436 196 420 180 l 604 364 q 604 412 628 388 q 556 412 580 436 l 444 300 m 814 407 q 695 119 814 238 q 407 0 576 0 q 119 119 238 0 q 0 407 0 238 q 119 695 0 576 q 407 814 238 814 q 695 695 576 814 q 814 407 814 576 z "},"®":{"ha":949,"x_min":0,"x_max":814,"o":"m 406 465 l 409 465 l 408 467 l 406 465 m 444 368 l 444 674 q 410 708 444 708 q 376 674 376 708 l 376 368 l 264 481 q 216 481 239 505 q 216 433 192 456 l 384 265 q 404 253 394 254 q 436 264 420 248 l 604 432 q 604 479 628 456 q 556 479 580 504 l 444 368 m 814 407 q 695 119 814 238 q 407 0 576 0 q 119 119 238 0 q 0 407 0 238 q 119 695 0 576 q 407 814 238 814 q 695 695 576 814 q 814 407 814 576 m 543 203 l 271 203 q 237 170 237 203 q 271 136 237 136 l 543 136 q 577 170 577 136 q 543 203 577 203 z "},"¯":{"ha":1153,"x_min":-14,"x_max":1042,"o":"m 35 72 q 35 168 -14 119 l 466 599 q 562 599 514 647 l 994 168 q 994 72 1042 119 l 945 24 q 850 24 898 -24 l 562 311 q 466 311 514 359 l 178 24 q 82 24 130 -24 l 35 72 l 35 72 z "},"°":{"ha":1153,"x_min":-14,"x_max":1042,"o":"m 35 72 q 35 168 -14 119 l 466 599 q 562 599 514 647 l 994 168 q 994 72 1042 119 l 945 24 q 850 24 898 -24 l 562 311 q 466 311 514 359 l 178 24 q 82 24 130 -24 l 35 72 m 109 146 q 107 95 82 119 q 157 98 130 72 l 418 359 q 610 359 514 455 l 871 98 q 922 96 898 72 q 919 146 945 119 l 536 528 q 487 524 514 551 l 109 146 z "},"±":{"ha":915,"x_min":0,"x_max":779,"o":"m 662 620 q 500 271 633 475 q 0 0 339 68 l 0 407 q 339 407 203 339 q 579 648 527 524 q 447 644 513 661 l 673 848 l 779 543 q 662 620 720 592 z "}," ":{"ha":919,"x_min":0,"x_max":0,"o":""},"t":{"ha":1158,"x_min":0,"x_max":1017,"o":"m 0 543 l 339 1017 l 678 543 l 475 543 l 475 407 q 678 203 475 203 q 882 407 882 203 l 1017 407 q 678 0 1017 0 q 203 407 203 0 l 203 543 l 0 543 z "},"!":{"ha":1017,"x_min":0,"x_max":916,"o":"m 237 458 q 222 422 237 437 q 186 407 208 407 q 151 422 165 407 q 136 458 136 437 q 151 494 136 479 q 186 509 165 509 q 222 494 208 509 q 237 458 237 479 m 509 458 q 494 422 509 437 q 458 407 479 407 q 422 422 437 407 q 407 458 407 437 q 422 494 407 479 q 458 509 437 509 q 494 494 479 509 q 509 458 509 479 m 916 322 q 901 286 916 301 q 865 271 886 271 q 829 286 844 271 q 814 322 814 301 q 829 358 814 343 q 865 373 844 373 q 901 358 886 373 q 916 322 916 343 m 780 458 q 765 422 780 437 q 729 407 750 407 q 693 422 708 407 q 678 458 678 437 q 693 494 678 479 q 729 509 708 509 q 765 494 750 509 q 780 458 780 479 m 322 543 q 286 557 301 543 q 271 593 271 572 q 286 629 271 614 q 322 644 301 644 q 358 629 343 644 q 373 593 373 614 q 358 557 373 572 q 322 543 343 543 m 593 543 q 557 557 572 543 q 543 593 543 572 q 557 629 543 614 q 593 644 572 644 q 629 629 614 644 q 644 593 644 614 q 629 557 644 572 q 593 543 614 543 m 458 678 q 422 693 437 678 q 407 729 407 708 q 422 765 407 750 q 458 780 437 780 q 494 765 479 780 q 509 729 509 750 q 494 693 509 708 q 458 678 479 678 m 509 322 q 494 286 509 301 q 458 271 479 271 q 422 286 437 271 q 407 322 407 301 q 422 358 407 343 q 458 373 437 373 q 494 358 479 373 q 509 322 509 343 m 509 186 q 494 151 509 165 q 458 136 479 136 q 422 151 437 136 q 407 186 407 165 q 422 222 407 208 q 458 237 437 237 q 494 222 479 237 q 509 186 509 208 m 509 593 q 494 557 509 572 q 458 543 479 543 q 422 557 437 543 q 407 593 407 572 q 422 629 407 614 q 458 644 437 644 q 494 629 479 644 q 509 593 509 614 m 509 51 q 494 15 509 30 q 458 0 479 0 q 422 15 437 0 q 407 51 407 30 q 422 87 407 72 q 458 102 437 102 q 494 87 479 102 q 509 51 509 72 m 102 322 q 87 286 102 301 q 51 271 72 271 q 15 286 30 271 q 0 322 0 301 q 15 358 0 343 q 51 373 30 373 q 87 358 72 373 q 102 322 102 343 z "}}}
